G04 #@! TF.GenerationSoftware,KiCad,Pcbnew,(5.1.2)-1*
G04 #@! TF.CreationDate,2024-09-22T12:56:42+09:00*
G04 #@! TF.ProjectId,pc_back,70635f62-6163-46b2-9e6b-696361645f70,v1.1*
G04 #@! TF.SameCoordinates,Original*
G04 #@! TF.FileFunction,Soldermask,Bot*
G04 #@! TF.FilePolarity,Negative*
%FSLAX46Y46*%
G04 Gerber Fmt 4.6, Leading zero omitted, Abs format (unit mm)*
G04 Created by KiCad (PCBNEW (5.1.2)-1) date 2024-09-22 12:56:42*
%MOMM*%
%LPD*%
G04 APERTURE LIST*
%ADD10C,0.100000*%
G04 APERTURE END LIST*
D10*
G36*
X182375256Y-135391298D02*
G01*
X182481579Y-135412447D01*
X182782042Y-135536903D01*
X183052451Y-135717585D01*
X183282415Y-135947549D01*
X183463097Y-136217958D01*
X183587553Y-136518421D01*
X183651000Y-136837391D01*
X183651000Y-137162609D01*
X183587553Y-137481579D01*
X183463097Y-137782042D01*
X183282415Y-138052451D01*
X183052451Y-138282415D01*
X182782042Y-138463097D01*
X182481579Y-138587553D01*
X182375256Y-138608702D01*
X182162611Y-138651000D01*
X181837389Y-138651000D01*
X181624744Y-138608702D01*
X181518421Y-138587553D01*
X181217958Y-138463097D01*
X180947549Y-138282415D01*
X180717585Y-138052451D01*
X180536903Y-137782042D01*
X180412447Y-137481579D01*
X180349000Y-137162609D01*
X180349000Y-136837391D01*
X180412447Y-136518421D01*
X180536903Y-136217958D01*
X180717585Y-135947549D01*
X180947549Y-135717585D01*
X181217958Y-135536903D01*
X181518421Y-135412447D01*
X181624744Y-135391298D01*
X181837389Y-135349000D01*
X182162611Y-135349000D01*
X182375256Y-135391298D01*
X182375256Y-135391298D01*
G37*
G36*
X108375256Y-135391298D02*
G01*
X108481579Y-135412447D01*
X108782042Y-135536903D01*
X109052451Y-135717585D01*
X109282415Y-135947549D01*
X109463097Y-136217958D01*
X109587553Y-136518421D01*
X109651000Y-136837391D01*
X109651000Y-137162609D01*
X109587553Y-137481579D01*
X109463097Y-137782042D01*
X109282415Y-138052451D01*
X109052451Y-138282415D01*
X108782042Y-138463097D01*
X108481579Y-138587553D01*
X108375256Y-138608702D01*
X108162611Y-138651000D01*
X107837389Y-138651000D01*
X107624744Y-138608702D01*
X107518421Y-138587553D01*
X107217958Y-138463097D01*
X106947549Y-138282415D01*
X106717585Y-138052451D01*
X106536903Y-137782042D01*
X106412447Y-137481579D01*
X106349000Y-137162609D01*
X106349000Y-136837391D01*
X106412447Y-136518421D01*
X106536903Y-136217958D01*
X106717585Y-135947549D01*
X106947549Y-135717585D01*
X107217958Y-135536903D01*
X107518421Y-135412447D01*
X107624744Y-135391298D01*
X107837389Y-135349000D01*
X108162611Y-135349000D01*
X108375256Y-135391298D01*
X108375256Y-135391298D01*
G37*
M02*
