G04 #@! TF.GenerationSoftware,KiCad,Pcbnew,(5.1.2)-1*
G04 #@! TF.CreationDate,2024-09-22T12:57:02+09:00*
G04 #@! TF.ProjectId,pc,70632e6b-6963-4616-945f-706362585858,v1.1*
G04 #@! TF.SameCoordinates,Original*
G04 #@! TF.FileFunction,Legend,Top*
G04 #@! TF.FilePolarity,Positive*
%FSLAX46Y46*%
G04 Gerber Fmt 4.6, Leading zero omitted, Abs format (unit mm)*
G04 Created by KiCad (PCBNEW (5.1.2)-1) date 2024-09-22 12:57:02*
%MOMM*%
%LPD*%
G04 APERTURE LIST*
%ADD10C,0.150000*%
%ADD11C,1.902000*%
%ADD12C,0.100000*%
%ADD13C,1.102000*%
%ADD14O,1.626000X1.902000*%
%ADD15C,3.302000*%
%ADD16C,0.752000*%
%ADD17O,2.202000X1.102000*%
%ADD18O,1.702000X1.102000*%
%ADD19O,1.852000X1.302000*%
%ADD20C,1.302000*%
%ADD21C,2.502000*%
G04 APERTURE END LIST*
D10*
X173028943Y-125623746D02*
X172456523Y-126196166D01*
X172422851Y-126297181D01*
X172422851Y-126364525D01*
X172456523Y-126465540D01*
X172591210Y-126600227D01*
X172692225Y-126633899D01*
X172759569Y-126633899D01*
X172860584Y-126600227D01*
X173433004Y-126027807D01*
X173837065Y-126903273D02*
X173365660Y-127374677D01*
X173938080Y-126465540D02*
X173264645Y-126802258D01*
X173702378Y-127239990D01*
%LPC*%
D11*
X180849782Y-123046218D03*
D12*
G36*
X179434154Y-122975507D02*
G01*
X180779071Y-121630590D01*
X182265410Y-123116929D01*
X180920493Y-124461846D01*
X179434154Y-122975507D01*
X179434154Y-122975507D01*
G37*
D11*
X175122218Y-128773782D03*
D12*
G36*
X173706590Y-128703071D02*
G01*
X175051507Y-127358154D01*
X176537846Y-128844493D01*
X175192929Y-130189410D01*
X173706590Y-128703071D01*
X173706590Y-128703071D01*
G37*
D13*
X179506280Y-129445534D03*
D12*
G36*
X178620982Y-129339468D02*
G01*
X179400214Y-128560236D01*
X180391578Y-129551600D01*
X179612346Y-130330832D01*
X178620982Y-129339468D01*
X178620982Y-129339468D01*
G37*
D13*
X180513907Y-128437907D03*
D12*
G36*
X179628609Y-128331841D02*
G01*
X180407841Y-127552609D01*
X181399205Y-128543973D01*
X180619973Y-129323205D01*
X179628609Y-128331841D01*
X179628609Y-128331841D01*
G37*
D13*
X181521534Y-127430280D03*
D12*
G36*
X180636236Y-127324214D02*
G01*
X181415468Y-126544982D01*
X182406832Y-127536346D01*
X181627600Y-128315578D01*
X180636236Y-127324214D01*
X180636236Y-127324214D01*
G37*
D13*
X174450466Y-124389720D03*
D12*
G36*
X173565168Y-124283654D02*
G01*
X174344400Y-123504422D01*
X175335764Y-124495786D01*
X174556532Y-125275018D01*
X173565168Y-124283654D01*
X173565168Y-124283654D01*
G37*
D13*
X175458093Y-123382093D03*
D12*
G36*
X174572795Y-123276027D02*
G01*
X175352027Y-122496795D01*
X176343391Y-123488159D01*
X175564159Y-124267391D01*
X174572795Y-123276027D01*
X174572795Y-123276027D01*
G37*
D13*
X176465720Y-122374466D03*
D12*
G36*
X175580422Y-122268400D02*
G01*
X176359654Y-121489168D01*
X177351018Y-122480532D01*
X176571786Y-123259764D01*
X175580422Y-122268400D01*
X175580422Y-122268400D01*
G37*
D14*
X106500000Y-111525000D03*
X108500000Y-111525000D03*
X110500000Y-111525000D03*
X112500000Y-111525000D03*
D15*
X182000000Y-137000000D03*
X108000000Y-137000000D03*
D16*
X111300000Y-123435000D03*
X111300000Y-129215000D03*
D17*
X111830000Y-130645000D03*
X111830000Y-122005000D03*
D18*
X107650000Y-130645000D03*
X107650000Y-122005000D03*
D19*
X107775000Y-118925000D03*
D12*
G36*
X108456338Y-116275306D02*
G01*
X108482669Y-116279212D01*
X108508490Y-116285680D01*
X108533553Y-116294648D01*
X108557617Y-116306029D01*
X108580449Y-116319714D01*
X108601830Y-116335571D01*
X108621553Y-116353447D01*
X108639429Y-116373170D01*
X108655286Y-116394551D01*
X108668971Y-116417383D01*
X108680352Y-116441447D01*
X108689320Y-116466510D01*
X108695788Y-116492331D01*
X108699694Y-116518662D01*
X108701000Y-116545249D01*
X108701000Y-117304751D01*
X108699694Y-117331338D01*
X108695788Y-117357669D01*
X108689320Y-117383490D01*
X108680352Y-117408553D01*
X108668971Y-117432617D01*
X108655286Y-117455449D01*
X108639429Y-117476830D01*
X108621553Y-117496553D01*
X108601830Y-117514429D01*
X108580449Y-117530286D01*
X108557617Y-117543971D01*
X108533553Y-117555352D01*
X108508490Y-117564320D01*
X108482669Y-117570788D01*
X108456338Y-117574694D01*
X108429751Y-117576000D01*
X107120249Y-117576000D01*
X107093662Y-117574694D01*
X107067331Y-117570788D01*
X107041510Y-117564320D01*
X107016447Y-117555352D01*
X106992383Y-117543971D01*
X106969551Y-117530286D01*
X106948170Y-117514429D01*
X106928447Y-117496553D01*
X106910571Y-117476830D01*
X106894714Y-117455449D01*
X106881029Y-117432617D01*
X106869648Y-117408553D01*
X106860680Y-117383490D01*
X106854212Y-117357669D01*
X106850306Y-117331338D01*
X106849000Y-117304751D01*
X106849000Y-116545249D01*
X106850306Y-116518662D01*
X106854212Y-116492331D01*
X106860680Y-116466510D01*
X106869648Y-116441447D01*
X106881029Y-116417383D01*
X106894714Y-116394551D01*
X106910571Y-116373170D01*
X106928447Y-116353447D01*
X106948170Y-116335571D01*
X106969551Y-116319714D01*
X106992383Y-116306029D01*
X107016447Y-116294648D01*
X107041510Y-116285680D01*
X107067331Y-116279212D01*
X107093662Y-116275306D01*
X107120249Y-116274000D01*
X108429751Y-116274000D01*
X108456338Y-116275306D01*
X108456338Y-116275306D01*
G37*
D20*
X107775000Y-116925000D03*
D21*
X178100000Y-132600000D03*
X178100000Y-119400000D03*
M02*
