M48
; DRILL file {KiCad (5.1.2)-1} date 2024/09/22 12:57:04
; FORMAT={-:-/ absolute / metric / decimal}
; #@! TF.CreationDate,2024-09-22T12:57:04+09:00
; #@! TF.GenerationSoftware,Kicad,Pcbnew,(5.1.2)-1
FMAT,2
METRIC
T1C0.350
T2C0.400
T3C0.600
T4C0.750
T5C0.762
T6C2.000
T7C0.650
T8C0.800
T9C1.100
T10C3.200
%
G90
G05
T1
X132.775Y-128.515
X132.775Y-129.79
X132.775Y-131.065
X134.05Y-128.515
X134.05Y-129.79
X134.05Y-131.065
X135.325Y-128.515
X135.325Y-129.79
X135.325Y-131.065
T2
X115.89Y-112.6
X119.22Y-129.79
X120.03Y-121.25
X120.84Y-129.06
X123.57Y-120.51
X123.97Y-136.58
X126.76Y-127.138
X127.005Y-130.626
X127.116Y-124.406
X129.145Y-132.609
X129.63Y-135.36
X131.61Y-138.18
X132.08Y-124.09
X133.405Y-117.605
X134.01Y-113.93
X134.79Y-138.64
X135.05Y-123.96
X135.083Y-134.31
X136.266Y-116.088
X136.32Y-132.0
X136.62Y-138.68
X137.95Y-138.91
X138.468Y-131.735
X138.679Y-132.997
X138.99Y-125.01
X139.38Y-116.73
X139.755Y-127.38
X141.101Y-127.785
X141.479Y-123.955
X141.504Y-119.759
X142.15Y-126.898
X142.326Y-117.592
X142.77Y-113.007
X142.84Y-113.955
X145.796Y-121.063
X146.043Y-124.819
X146.118Y-116.037
X146.32Y-134.7
X147.692Y-129.884
X150.617Y-128.54
X151.888Y-112.633
X154.654Y-138.944
X157.02Y-138.12
X158.15Y-136.85
X167.588Y-115.63
X173.77Y-131.85
X176.32Y-136.95
X182.0Y-130.22
X182.37Y-111.47
T4
X107.775Y-116.925
X107.775Y-118.925
T5
X106.5Y-111.525
X108.5Y-111.525
X110.5Y-111.525
X112.5Y-111.525
T6
X178.1Y-119.4
X178.1Y-132.6
T7
X111.3Y-123.435
X111.3Y-129.215
T8
X179.33Y-124.566
T9
X176.572Y-127.324
T10
X108.0Y-137.0
X182.0Y-137.0
T3
G00X107.35Y-122.005
M15
G01X107.95Y-122.005
M16
G05
G00X107.35Y-130.645
M15
G01X107.95Y-130.645
M16
G05
G00X111.28Y-122.005
M15
G01X112.38Y-122.005
M16
G05
G00X111.28Y-130.645
M15
G01X112.38Y-130.645
M16
G05
T0
M30
